Format                                   : Matroska
Format version                           : Version 1
File size                                : 7.95 GiB
Duration                                 : 2h 9mn
Overall bit rate                         : 8 753 Kbps
Encoded date                             : UTC 2009-02-08 16:19:12
Writing application                      : mkvmerge v2.4.1 ('Use Me') built on Dec  5 2008 18:30:05
Writing library                          : libebml v0.7.7 + libmatroska v0.8.1

Video
ID                                       : 1
Format                                   : AVC
Format/Info                              : Advanced Video Codec
Format profile                           : High@L4.1
Format settings, CABAC                   : Yes
Format settings, ReFrames                : 4 frames
Codec ID                                 : V_MPEG4/ISO/AVC
Duration                                 : 2h 9mn
Bit rate                                 : 8 110 Kbps
Width                                    : 1 920 pixels
Height                                   : 1 040 pixels
Display aspect ratio                     : 1.85:1
Frame rate mode                          : Constant
Frame rate                               : 23.976 fps
Color space                              : YUV
Chroma subsampling                       : 4:2:0
Bit depth                                : 8 bits
Scan type                                : Progressive
Bits/(Pixel*Frame)                       : 0.169
Stream size                              : 7.21 GiB (91%)
Writing library                          : x264 core 66 r1101M b69548a

Audio
ID                                       : 2
Format                                   : AC-3
Format/Info                              : Audio Coding 3
Mode extension                           : CM (complete main)
Format settings, Endianness              : Big
Codec ID                                 : A_AC3
Duration                                 : 2h 9mn
Bit rate mode                            : Constant
Bit rate                                 : 640 Kbps
Channel(s)                               : 6 channels
Channel positions                        : Front: L C R, Side: L R, LFE
Sampling rate                            : 48.0 KHz
Bit depth                                : 16 bits
Compression mode                         : Lossy
Stream size                              : 595 MiB (7%)
Language                                 : English

Thumbnails: 
http://img189.imageshack.us/img189/2746/sexdriveunrated1080pblu.jpg